# xmcd
#
# Track frame offsets: 
#        150
#        11773
#        22009
#        29399
#        38182
#        44868
#        56827
#        65056
#        70559
#        78277
#        91458
#        110032
#        120296
#        127900
#        137050
#        147053
#        158242
#        170932
#        181392
#        191654
#
# Disc length: 2720 seconds
#
# Revision: 0
# Processed by: cddbd v1.5.2PL0 Copyright (c) Steve Scherf et al.
# Submitted via: ExactAudioCopy v0.99pb4
#
DISCID=230a9e14
DTITLE=Birkenfelder Musi - Volksmusik ... a abissal anders
DYEAR=1900
DGENRE=Folklore
TTITLE0=Bauernmarsch
TTITLE1=Maxglaner Polka
TTITLE2=Altenglischer Tanz
TTITLE3=Stoahaslberger Landler
TTITLE4=Planxty Browne
TTITLE5=Weber-Heiﬂ-Boarischer
TTITLE6=Harfenpolka
TTITLE7=Mrs. Maxwell
TTITLE8=Drei Zwiefache
TTITLE9=Pingauer Perchtentanz
TTITLE10=S' Bachal
TTITLE11=Pongauer Hirtenmusik
TTITLE12=Daphne
TTITLE13=Stille Zeit
TTITLE14=Bauernmenuett
TTITLE15=Lark on the Strand
TTITLE16=Deutscher Tanz
TTITLE17=Londoner Harfenlandler
TTITLE18=Menuett
TTITLE19=Walzer aus dem Bayer. Wald
EXTD=
EXTT0=
EXTT1=
EXTT2=
EXTT3=
EXTT4=
EXTT5=
EXTT6=
EXTT7=
EXTT8=
EXTT9=
EXTT10=
EXTT11=
EXTT12=
EXTT13=
EXTT14=
EXTT15=
EXTT16=
EXTT17=
EXTT18=
EXTT19=
PLAYORDER=
